<?xml version="1.0" encoding="UTF-8"?>
<svg width="40px" height="40px" viewBox="0 0 60 60" version="1.1" xmlns="http://www.w3.org/2000/svg" xmlns:xlink="http://www.w3.org/1999/xlink">
   <title>Fill 1</title>
    <desc>Created with Sketch.</desc>
    <defs>
        <linearGradient x1="100%" y1="50%" x2="0%" y2="50%" id="linearGradient-1">
            <stop stop-color="#A78963" offset="0%"></stop>
            <stop stop-color="#784729" offset="100%"></stop>
        </linearGradient>
    </defs>
    <g id="Page-1" stroke="none" stroke-width="1" fill="none" fill-rule="evenodd">
        <g id="Homepage-Main" transform="translate(-1170.000000, -1428.000000)" fill="url(#linearGradient-1)">
            <g id="Group-44" transform="translate(1170.000000, 1170.000000)">
                <g id="Group-20" transform="translate(0.000000, 258.000000)">
                    <path d="M2.03389831,49.8305085 L57.9661017,49.8305085 L57.9661017,44.7457627 L2.03389831,44.7457627 L2.03389831,49.8305085 Z M50.5157044,56.9491525 L9.4842956,56.9491525 L8.13559322,51.8644068 L51.8644068,51.8644068 L50.5157044,56.9491525 Z M22.5818442,2.03389831 L26.440678,2.03389831 L8.94667839,42.7118644 L5.08474576,42.7118644 L22.5818442,2.03389831 Z M13.9077214,42.7118644 L12.2033898,42.7118644 L28.8070836,2.03389831 L30.5084746,2.03389831 L13.9077214,42.7118644 Z M19.1161699,42.7118644 L15.2542373,42.7118644 L32.7513357,2.03389831 L36.6101695,2.03389831 L19.1161699,42.7118644 Z M38.6440678,4.06779661 L54.9152542,42.7118644 L22.3728814,42.7118644 L38.6440678,4.06779661 Z M59,42.5 L56.600125,42.5 L38.88375,0.6653125 C38.879375,0.65609375 38.874,0.64765625 38.868125,0.6403125 C38.86475,0.628125 38.860875,0.61640625 38.856,0.60484375 C38.67525,0.22953125 38.350625,0 38,0 L22,0 C21.629375,0 21.2895,0.25578125 21.11625,0.6653125 L3.399875,42.5 L1,42.5 C0.44775,42.5 0,43.0596875 0,43.75 L0,51.25 C0,51.9403125 0.44775,52.5 1,52.5 L6.27975,52.5 L8.05175,59.1448438 C8.188,59.6551563 8.569875,59.999375 9,60 L51,60 C51.430125,59.999375 51.812,59.6551563 51.94825,59.1448438 L53.72025,52.5 L59,52.5 C59.55225,52.5 60,51.9403125 60,51.25 L60,43.75 C60,43.0596875 59.55225,42.5 59,42.5 Z" id="Fill-1"></path>
                </g>
            </g>
        </g>
    </g>
</svg>